<?xml version="1.0" encoding="UTF-8" standalone="no"?>
<svg
   xmlns:dc="http://purl.org/dc/elements/1.1/"
   xmlns:cc="http://creativecommons.org/ns#"
   xmlns:rdf="http://www.w3.org/1999/02/22-rdf-syntax-ns#"
   xmlns:svg="http://www.w3.org/2000/svg"
   xmlns="http://www.w3.org/2000/svg"
   id="svg8"
   version="1.1"
   viewBox="0 0 230 242"
   height="242mm"
   width="230mm">
  <defs
     id="defs2" />
  <metadata
     id="metadata5">
    <rdf:RDF>
      <cc:Work
         rdf:about="">
        <dc:format>image/svg+xml</dc:format>
        <dc:type
           rdf:resource="http://purl.org/dc/dcmitype/StillImage" />
        <dc:title></dc:title>
      </cc:Work>
    </rdf:RDF>
  </metadata>
  <g
     transform="translate(0,-55)"
     id="layer1"><path
   id="paddle-up"
   d="m 105.46495,294.78601 c -12.821607,-5.59621 -14.8288,-20.95264 -14.16091,-33.47824 0.453729,-15.68443 -1.418071,-31.71228 1.756551,-47.15165 5.753174,-19.02678 34.823289,-21.10007 43.622679,-3.59336 5.44293,12.4351 2.57191,26.62718 3.3966,39.84302 -0.84446,12.54203 1.99246,26.99268 -5.78765,37.76145 -6.87709,8.05192 -19.26864,11.03849 -28.82727,6.61878 z"
   style="fill:#000000;stroke-width:1.37758625" />

    <path
   id="paddle-left"
   d="M 19.266968,200.62145 C 3.7904019,196.91003 -5.0868904,176.48928 4.5851255,162.89156 c 6.0331475,-12.16959 20.4418535,-10.85082 31.6675525,-11.03 14.773051,0.24095 29.710125,-0.99858 44.365595,1.19748 19.634407,4.91508 21.421997,36.78227 3.448466,45.07443 -12.759006,5.42353 -27.114576,2.89613 -40.595049,3.66354 -8.065658,-0.17622 -16.209107,0.0112 -24.204722,-1.17556 z"
   style="fill:#000000;stroke-width:1.37758625" />
<path
   id="paddle-right"
   d="m 153.3805,200.52255 c -17.71784,-3.20815 -25.81828,-28.34144 -12.74031,-41.23059 10.25899,-10.7733 26.14374,-6.46046 39.25307,-7.50813 13.08258,0.58607 26.84834,-1.57574 39.32999,3.19996 14.8996,9.33137 14.67525,35.00682 -1.36756,43.04185 -12.21545,4.99138 -25.96535,3.00747 -38.85873,3.81577 -8.53047,-0.13544 -17.17637,0.13258 -25.61646,-1.31886 z"
   style="fill:#000000;stroke-width:1.37758625" />
<path
   id="paddle-down"
   d="M 105.01083,151.65905 C 94.246312,146.50585 90.602624,134.15944 91.703418,122.84806 91.959665,105.62904 89.731159,88.060752 93.278021,71.087303 96.853939,59.457726 109.45595,54.244434 120.5753,56.336346 c 11.78782,1.189523 19.50252,13.444316 19.00688,24.964236 0.61561,17.448051 1.10523,35.005418 -0.24263,52.421088 -2.20518,15.67414 -20.53667,25.54046 -34.32872,17.93738 z"
   style="fill:#000000;stroke-width:1.37758625" />
</g>
</svg>
