<?xml version="1.0" encoding="UTF-8" standalone="no"?>
<svg
   xmlns:dc="http://purl.org/dc/elements/1.1/"
   xmlns:cc="http://creativecommons.org/ns#"
   xmlns:rdf="http://www.w3.org/1999/02/22-rdf-syntax-ns#"
   xmlns:svg="http://www.w3.org/2000/svg"
   xmlns="http://www.w3.org/2000/svg"
   id="svg8"
   version="1.1"
   viewBox="0 0 211.44894 166.90219"
   height="166.90219mm"
   width="211.44894mm">
  <defs
     id="defs2" />
  <metadata
     id="metadata5">
    <rdf:RDF>
      <cc:Work
         rdf:about="">
        <dc:format>image/svg+xml</dc:format>
        <dc:type
           rdf:resource="http://purl.org/dc/dcmitype/StillImage" />
        <dc:title></dc:title>
      </cc:Work>
    </rdf:RDF>
  </metadata>
  <g
     transform="translate(0.64709,-52.531054)"
     id="layer1">
    <path
       id="path21"
       d="M -0.64709,135.98215 V 52.531054 h 105.72447 105.72448 v 83.451096 83.4511 H 105.07738 -0.64709 Z m 169.30507,49.82 c -9.30687,-10.06683 -21.21982,-22.90381 -26.47321,-28.52665 l -9.55162,-10.22331 -5.55188,5.74695 c -7.60354,7.87075 -10.87035,10.07651 -16.74092,11.30351 -4.33338,0.90574 -4.96451,0.90867 -9.40418,0.0438 -5.97999,-1.165 -8.47216,-2.85354 -16.81694,-11.39394 l -6.12436,-6.26793 -11.94589,12.88999 c -6.57024,7.0895 -18.58952,20.05422 -26.70949,28.8105 l -14.76359,15.9205 h 80.50184 80.50185 z m 27.57979,-49.10821 V 80.068574 l -26.43163,27.813236 c -14.53739,15.29726 -26.37072,27.97299 -26.29627,28.16826 0.13146,0.34469 52.32296,57.13101 52.59305,57.22319 0.0741,0.0252 0.13485,-25.43538 0.13485,-56.57932 z M 56.33004,147.48954 67.43142,135.43763 41.10556,107.32515 C 26.62634,91.863299 14.70696,79.212696 14.61805,79.212696 c -0.0889,0 -0.14999,25.482374 -0.13574,56.627534 l 0.0259,56.62753 15.36022,-16.46315 c 8.44813,-9.05472 20.35585,-21.8865 26.4616,-28.51507 z m 53.48867,0.45212 c 1.1083,-0.60777 18.72887,-18.71972 39.48889,-40.59016 L 186.79517,67.858806 H 105.95685 25.1185 l 9.19355,10.076578 c 16.50774,18.093275 66.14664,69.894106 67.52886,70.469956 2.21554,0.923 5.83243,0.71279 7.9778,-0.46368 z"
       style="fill:#000000;stroke-width:0.55337191" />
  </g>
</svg>
