<?xml version="1.0" encoding="UTF-8" standalone="no"?>
<svg
   xmlns:dc="http://purl.org/dc/elements/1.1/"
   xmlns:cc="http://creativecommons.org/ns#"
   xmlns:rdf="http://www.w3.org/1999/02/22-rdf-syntax-ns#"
   xmlns:svg="http://www.w3.org/2000/svg"
   xmlns="http://www.w3.org/2000/svg"
   id="svg29"
   version="1.1"
   viewBox="0 0 195.85725 237.07164"
   height="237.07164mm"
   width="195.85725mm">
  <defs
     id="defs23" />
  <metadata
     id="metadata26">
    <rdf:RDF>
      <cc:Work
         rdf:about="">
        <dc:format>image/svg+xml</dc:format>
        <dc:type
           rdf:resource="http://purl.org/dc/dcmitype/StillImage" />
        <dc:title></dc:title>
      </cc:Work>
    </rdf:RDF>
  </metadata>
  <g
     transform="translate(-0.26485798,-0.26271614)"
     id="layer1">
    <path
       id="path42"
       d="m 133.9055,236.94911 c -1.10669,-0.32209 -2.74159,-1.11569 -3.63314,-1.76377 -0.89153,-0.64807 -17.98755,-18.33407 -37.991197,-39.30227 C 51.53579,153.17315 53.759712,155.85859 54.169886,149.8629 l 0.206072,-3.01228 -1.330553,-0.29991 C 48.741126,145.57975 46.50018,143.03914 41.047537,132.94828 38.722463,128.64548 28.940152,110.64068 19.30904,92.937627 9.6779359,75.234574 1.4203999,59.868634 0.95896386,58.791077 -0.08221514,56.359768 0.06768486,51.791172 1.2760499,49.127 2.2495249,46.980755 5.9134549,43.112135 24.145891,24.979606 31.786117,17.381252 39.824299,9.3457097 42.008495,7.1227967 c 5.980451,-6.0864 6.182582,-6.16650903 16.828118,-6.66975203 10.007649,-0.473095 11.432839,-0.214361 13.90208,2.52194103 0.718334,0.796022 6.164672,11.0029923 12.10298,22.6820493 5.93835,11.679129 11.52161,22.642943 12.40729,24.364085 15.943337,30.982779 17.641087,34.529414 17.368877,36.283764 -0.22717,1.464539 -0.20294,1.491675 1.34174,1.491675 1.51622,0 2.95313,1.444793 39.68117,39.898931 25.58753,26.79001 38.3996,40.51052 38.99541,41.76046 2.11056,4.42784 1.96637,9.26023 -0.39124,13.11452 -0.67678,1.10643 -12.15388,13.39915 -25.5046,27.31711 -18.19221,18.96517 -24.75603,25.53764 -26.1975,26.2323 -2.53771,1.22285 -6.10708,1.56563 -8.63727,0.82949 z m 5.51462,-6.30018 1.19922,-1.09647 -35.26216,-36.90312 -35.262205,-36.90311 -1.282667,1.52183 c -0.705502,0.837 -1.615451,1.69797 -2.022128,1.91329 -0.609456,0.3226 5.324941,6.73237 33.77281,36.47768 33.22414,34.73949 34.57093,36.0863 36.08502,36.0863 1.05864,0 1.96488,-0.35852 2.77211,-1.0964 z m 7.73868,-8.03899 c 1.39389,-0.7748 41.68504,-42.98065 42.35617,-44.36903 0.65715,-1.35936 0.58909,-3.97834 -0.14086,-5.41615 -0.91401,-1.80082 -72.9557,-76.842123 -74.11712,-77.203123 -0.54936,-0.17053 -1.70341,-0.1769 -2.56456,-0.016 -1.35915,0.25767 -4.31803,3.16741 -22.432037,22.059553 -11.476535,11.96953 -21.141677,22.30595 -21.47816,22.96993 -0.782953,1.54507 -0.782953,4.08736 0,5.63247 0.734539,1.4496 72.145637,76.16208 73.222697,76.60778 1.29899,0.53763 3.95284,0.39972 5.15365,-0.26768 z m -5.64662,-7.88665 c -1.75151,-2.17718 -1.4834,-3.51509 1.26047,-6.28962 1.30186,-1.31643 2.73742,-2.57182 3.19004,-2.78979 1.24447,-0.59923 3.20019,0.45672 4.10651,2.21674 0.77029,1.49595 0.76932,1.57066 -0.0404,3.14265 -0.45585,0.88562 -1.68089,2.39441 -2.72189,3.35285 -2.44306,2.24915 -4.19179,2.35999 -5.79504,0.36697 z m -8.15907,-8.88807 c -0.46999,-0.20011 -2.057,-1.67663 -3.52626,-3.28161 -3.71225,-4.0552 -3.67089,-4.35739 1.30692,-9.56376 5.16621,-5.40331 5.61788,-5.45458 9.77296,-1.10875 4.01086,4.19496 3.98259,4.46018 -1.03535,9.71862 -4.04362,4.23732 -5.02067,4.87224 -6.51827,4.2355 z m 19.76843,-1.39551 c -0.88866,-0.54136 -2.03024,-2.71549 -2.03024,-3.86661 0,-0.44934 1.20731,-2.06894 2.68288,-3.59852 3.15228,-3.26769 4.5322,-3.59564 6.42678,-1.52732 1.95907,2.13869 1.61693,3.73682 -1.46471,6.84203 -2.67168,2.6922 -3.93262,3.17513 -5.61471,2.15042 z m -33.70133,-12.77838 c -2.55323,-2.5781 -2.95038,-3.19148 -2.95038,-4.55643 0,-1.39406 0.46242,-2.06076 3.97833,-5.73828 5.05652,-5.28865 5.31928,-5.31979 9.34553,-1.10872 4.15508,4.34581 4.10611,4.81828 -1.06004,10.22159 -5.01769,5.24803 -5.25644,5.27833 -9.31344,1.18184 z m 43.80996,0.56508 c -0.79931,-0.83595 -1.45327,-1.94181 -1.45327,-2.45745 0,-0.89598 1.99606,-3.5648 4.27428,-5.71495 1.87888,-1.77326 4.57535,-1.21822 5.76439,1.1866 0.48364,0.97839 0.53663,1.59843 0.21253,2.49041 -0.84933,2.33646 -4.88834,6.01538 -6.60423,6.01538 -0.40741,0 -1.39425,-0.684 -2.19356,-1.51999 z m -18.19652,-4.66163 c -4.15513,-4.34581 -4.10611,-4.81828 1.06004,-10.2216 5.0177,-5.24802 5.25638,-5.27828 9.31342,-1.18179 2.59025,2.6155 2.9504,3.1784 2.9504,4.61162 0,1.47014 -0.39831,2.04081 -4.00297,5.73825 -5.07691,5.2073 -5.32286,5.23514 -9.32089,1.05352 z m -36.80327,-7.57633 c -3.98833,-4.20362 -3.95415,-4.5069 1.10468,-9.79798 5.07984,-5.31302 5.56373,-5.38388 9.53424,-1.39611 1.51415,1.52067 2.85952,3.20892 2.98978,3.75172 0.36347,1.51395 -0.72162,3.22406 -4.44512,7.00655 -4.54637,4.61849 -5.18631,4.64884 -9.18358,0.4356 z m 66.90724,1.89629 c -1.52575,-0.671 -2.2499,-1.84781 -2.24232,-3.64383 0.004,-0.91858 0.6461,-1.94762 2.3762,-3.80758 1.30399,-1.40186 2.74104,-2.67171 3.19347,-2.82188 1.08095,-0.35904 2.90057,0.60367 3.95245,2.09069 1.14794,1.62273 0.72949,3.06535 -1.66625,5.74409 -2.35344,2.63154 -3.77271,3.24805 -5.61355,2.43851 z m -41.21706,-5.94316 c -4.02626,-4.21106 -3.99642,-4.48595 1.06003,-9.77452 3.51613,-3.67754 4.15363,-4.16099 5.48645,-4.16099 1.30504,0 1.89149,0.41556 4.35645,3.08586 3.9167,4.24322 3.88772,4.49292 -1.12997,9.74093 -5.16616,5.40332 -5.61784,5.45455 -9.77296,1.10872 z m 25.8006,-3.83184 c -2.46801,-2.50646 -2.8169,-3.0651 -2.8169,-4.51067 0,-1.48715 0.38166,-2.04288 3.8705,-5.63317 5.08953,-5.23778 5.64076,-5.28884 9.69427,-0.8974 3.9167,4.24322 3.88771,4.49292 -1.12997,9.74096 -5.1075,5.34195 -5.57574,5.40527 -9.6179,1.30028 z m -64.952707,-6.20173 -5.23263,-5.486 2.6745,-2.77194 2.67449,-2.77194 1.96932,1.34014 c 2.81111,1.91303 6.408237,3.12666 10.960317,3.69785 2.17451,0.27299 3.95366,0.61392 3.95366,0.75796 0,0.70779 -10.22266,10.71998 -10.94533,10.71998 -0.48161,0 -2.986747,-2.26991 -6.054327,-5.48605 z m 28.551567,-1.01599 c -2.60419,-2.62959 -3.00337,-3.2423 -3.00337,-4.60994 0,-1.39405 0.46242,-2.06075 3.97835,-5.73828 5.01768,-5.24803 5.25637,-5.27829 9.31342,-1.18178 4.1897,4.2305 4.14265,4.82968 -0.78957,10.04809 -5.10986,5.40638 -5.54498,5.47423 -9.49883,1.48191 z m 25.59257,-4.0769 c -2.55325,-2.57811 -2.95041,-3.19152 -2.95041,-4.55646 0,-1.39399 0.46244,-2.06077 3.97836,-5.73828 5.01767,-5.24804 5.25636,-5.27828 9.31341,-1.18179 2.55325,2.57812 2.95041,3.19144 2.95041,4.55639 0,1.39404 -0.46244,2.06081 -3.97836,5.7383 -5.01769,5.24803 -5.25643,5.27833 -9.31341,1.18184 z m -67.4067,-8.79573 c -2.867763,-3.03387 -5.214067,-5.86717 -5.214067,-6.29622 0,-0.74137 9.33511,-11.11905 10.68565,-11.87897 0.54603,-0.3073 0.64578,0.21278 0.67269,3.50671 0.0353,4.56436 0.92455,8.08709 3.04147,12.07507 l 1.50915,2.84306 -2.49141,2.63327 c -1.37031,1.44827 -2.60347,2.63329 -2.74043,2.63329 -0.13679,0 -2.59531,-2.48226 -5.463053,-5.51621 z m 18.80286,2.59189 c -4.722417,-2.47098 -8.601047,-7.64868 -9.351117,-12.48301 l -0.24536,-1.58042 h 4.51185 4.5119 l 0.998757,1.89992 c 0.60172,1.14456 1.80085,2.43315 3.01612,3.24108 l 2.01736,1.34112 0.009,4.58227 0.009,4.58221 h -1.22481 c -0.67369,0 -2.58646,-0.71243 -4.2506,-1.58317 z m 10.46206,1.28512 c -0.1571,-0.16376 -0.28473,-2.17043 -0.28473,-4.45898 v -4.16096 l 1.27653,-0.69037 c 1.96783,-1.06437 4.11827,-3.20949 4.7066,-4.6951 l 0.53201,-1.34314 h 4.49201 4.49205 l -0.25393,1.63793 c -0.41093,2.64832 -2.47156,6.45885 -4.86131,8.98928 -3.13986,3.32475 -8.87187,6.0046 -10.09877,4.72134 z m 26.9267,-6.81125 c -3.88858,-4.21276 -3.86263,-4.44672 1.07716,-9.71519 3.53521,-3.77035 4.08077,-4.18667 5.48643,-4.18667 1.37033,0 1.90847,0.37645 4.40922,3.08583 3.9167,4.24322 3.88771,4.49292 -1.12997,9.74096 -3.51606,3.67745 -4.15356,4.16096 -5.48638,4.16096 -1.30511,0 -1.89151,-0.41555 -4.35646,-3.08589 z m -32.36926,-6.42095 c -2.82242,-1.98937 -3.24643,-6.3597 -0.85923,-8.85648 2.3872,-2.49679 6.56567,-2.05333 8.46772,0.89871 3.32191,5.15563 -2.6791,11.43211 -7.60849,7.95777 z m 24.23307,-2.1569 c -0.12269,-0.83827 -0.32461,-2.75953 -0.44829,-4.26947 -0.27513,-3.35798 -1.60427,-7.24232 -3.49603,-10.21903 l -1.42054,-2.23521 2.42779,-2.57056 c 1.33523,-1.4138 2.62911,-2.57051 2.87523,-2.57051 0.24635,0 2.70448,2.3668 5.46305,5.2595 3.72467,3.90584 5.01557,5.54725 5.01557,6.37743 0,0.83273 -1.30016,2.47414 -5.09696,6.43496 l -5.09693,5.31704 z m -38.535187,-7.00045 c 1.0757,-6.07256 7.23407,-12.40117 13.368897,-13.73845 l 1.38913,-0.30307 v 4.7204 4.72044 l -1.60284,0.85563 c -1.83552,0.97976 -2.70235,1.90964 -3.69941,3.9683 l -0.703637,1.45291 h -4.52457 -4.52456 z m 24.919217,-0.33105 c -0.7138,-1.23602 -1.99136,-2.54294 -3.32434,-3.40081 l -2.16502,-1.3933 0.12173,-4.31076 0.12173,-4.31071 1.49598,0.11821 c 5.40564,0.42715 12.29222,7.50109 13.512,13.88001 l 0.27262,1.42493 h -4.43765 -4.43768 z m 3.16283,-13.50221 c -3.44908,-2.0385 -7.92442,-3.26621 -11.90599,-3.26621 -1.72026,0 -3.12775,-0.1568 -3.12775,-0.34901 0,-0.19162 2.37701,-2.80706 5.28219,-5.81163 3.81203,-3.94238 5.56849,-5.46284 6.31095,-5.46284 0.74656,0 2.46405,1.50484 6.26141,5.48605 l 5.23265,5.48602 -2.67451,2.7579 -2.67451,2.75789 z m -55.065242,36.0246 c 1.029689,-0.49052 1.990666,-2.08547 1.990666,-3.3036 0,-1.21811 -0.960977,-2.81284 -1.990666,-3.30353 -1.57054,-0.74845 -2.541603,-0.6059 -3.842014,0.56401 -0.911124,0.81968 -1.168595,1.43155 -1.134336,2.69539 0.08058,2.97701 2.43324,4.5596 4.97635,3.34773 z m -7.66138,-15.8687 c 0.927027,-0.37225 0.877446,-0.61271 -0.741417,-3.59737 C 54.860505,134.79472 48.389769,122.85598 41.26072,109.70167 34.131673,96.547287 25.220641,80.151839 21.458409,73.267315 17.696185,66.382816 14.265559,59.945354 13.834799,58.96184 c -0.994526,-2.270709 -1.027138,-6.068196 -0.07043,-8.20282 0.826139,-1.843337 1.176424,-2.215987 24.815515,-26.400353 9.46674,-9.685151 17.14402,-17.6806713 17.060605,-17.7678843 -0.08347,-0.08715 -1.328216,-0.03164 -2.766222,0.127148 L 50.259689,7.0035677 29.402286,28.25051 C 17.930706,39.936285 8.1130909,50.218668 7.5853569,51.100172 c -0.527736,0.881564 -0.957981,2.306922 -0.956103,3.167474 0.0036,1.661528 0.267159,2.173425 15.9944091,31.069708 4.416122,8.113913 10.481591,19.278926 13.478812,24.811126 13.692782,25.27372 15.218511,27.92369 16.665908,28.94629 1.450642,1.02487 2.405918,1.21906 3.613197,0.73451 z m 9.566405,-6.18007 c 0.634818,-0.35219 10.530842,-10.46554 21.99122,-22.47478 C 109.76696,88.301494 109.11243,89.098565 108.78671,85.784646 108.73631,85.293066 103.39469,74.630848 96.911883,62.091191 90.429073,49.551526 81.502798,32.250816 77.07572,23.645123 72.648631,15.03948 68.620274,7.6464137 68.123827,7.2161387 65.965952,5.3459397 66.351794,5.0047467 42.845421,29.568537 19.460588,54.00521 19.393864,54.086634 20.139189,57.268675 c 0.160531,0.68534 3.792919,7.683579 8.071951,15.551629 7.569017,13.917336 11.406314,20.977393 25.513019,46.939916 3.740705,6.8845 7.281984,12.96994 7.869499,13.52312 1.229248,1.15751 2.703074,1.28143 4.354305,0.36592 z m -2.735155,-6.70413 c -0.728642,-0.33158 -1.717211,-1.2794 -2.19683,-2.10596 -0.740509,-1.27607 -22.564994,-42.985452 -31.806242,-60.785701 -2.146691,-4.1349 -2.926715,-6.086552 -2.926715,-7.322742 0,-1.911429 -0.515698,-1.326445 23.935837,-27.151327 12.989155,-13.718707 13.042994,-13.768652 14.829201,-13.76322 1.248916,0.004 2.120298,0.31047 2.872639,1.011348 0.59394,0.553206 8.812637,15.993108 18.263825,34.310809 15.310637,29.674358 17.187457,33.529989 17.216337,35.368826 l 0.0303,2.063773 -12.045177,12.912294 c -21.555168,23.10672 -24.698413,26.19377 -26.557801,26.08264 -0.160956,-0.01 -0.888903,-0.28882 -1.617551,-0.62074 z"
       style="fill:#000000;stroke-width:0.43712607" />
  </g>
</svg>
